<svg width="32" height="32" viewBox="0 0 32 32" fill="none" xmlns="http://www.w3.org/2000/svg">
<rect width="32" height="32" rx="5" fill="black"/>
<path d="M5 19.5195C5 19.319 5.02734 19.1367 5.08203 18.9727C5.13672 18.8086 5.14583 18.599 5.10938 18.3438C5.67448 17.1406 6.3125 16.0286 7.02344 15.0078C7.7526 13.9688 8.61849 13.0573 9.62109 12.2734C9.78516 12.1458 9.91276 12.0182 10.0039 11.8906C10.1133 11.7448 10.2135 11.6081 10.3047 11.4805C10.4141 11.3529 10.5326 11.2435 10.6602 11.1523C10.7878 11.043 10.9518 10.9701 11.1523 10.9336C11.6081 10.4049 12.1549 9.92188 12.793 9.48438C13.431 9.04688 14.0964 8.6276 14.7891 8.22656C15.4818 7.82552 16.1745 7.41536 16.8672 6.99609C17.5781 6.57682 18.2161 6.12109 18.7812 5.62891C18.9818 5.75651 19.1367 5.80208 19.2461 5.76562C19.3737 5.71094 19.5013 5.70182 19.6289 5.73828C19.793 6.08464 20.0026 6.33073 20.2578 6.47656C20.5312 6.60417 20.8047 6.74089 21.0781 6.88672C21.3698 7.01432 21.6341 7.17839 21.8711 7.37891C22.1263 7.5612 22.3177 7.81641 22.4453 8.14453C22.3177 8.14453 22.2539 8.1901 22.2539 8.28125C22.2721 8.3724 22.2995 8.47266 22.3359 8.58203C22.3724 8.69141 22.3906 8.79167 22.3906 8.88281C22.3906 8.97396 22.3086 9.01953 22.1445 9.01953C22.1445 9.14714 22.2083 9.21094 22.3359 9.21094C22.4635 9.21094 22.5273 9.27474 22.5273 9.40234C22.5273 9.51172 22.5 9.60286 22.4453 9.67578C22.4089 9.73047 22.4089 9.83073 22.4453 9.97656C22.0078 10.2682 21.5156 10.5508 20.9688 10.8242C20.4401 11.0794 19.875 11.3529 19.2734 11.6445C18.6901 11.9362 18.0885 12.2552 17.4688 12.6016C16.8672 12.9297 16.2656 13.3125 15.6641 13.75C15.0625 14.1875 14.4518 14.6706 13.832 15.1992C13.2305 15.7279 12.6471 16.293 12.082 16.8945C11.5169 17.4779 10.9883 18.0885 10.4961 18.7266C10.0039 19.3464 9.58464 19.957 9.23828 20.5586C9.27474 20.6497 9.32031 20.7318 9.375 20.8047C9.44792 20.8776 9.5026 20.9596 9.53906 21.0508C10.2318 21.0872 10.8789 21.0872 11.4805 21.0508C12.082 20.9961 12.6836 21.0326 13.2852 21.1602C13.3581 21.1055 13.4036 21.0326 13.4219 20.9414C13.4401 20.8503 13.4948 20.7865 13.5859 20.75C14.8255 20.6224 15.9831 20.4219 17.0586 20.1484C18.1341 19.8568 19.2279 19.5651 20.3398 19.2734C20.0117 19.1458 19.7201 19.0456 19.4648 18.9727C19.3555 18.8633 19.3555 18.7721 19.4648 18.6992C19.5924 18.6081 19.6927 18.5169 19.7656 18.4258C19.474 18.2617 19.2279 18.043 19.0273 17.7695C18.8451 17.4961 18.7357 17.1406 18.6992 16.7031C18.8268 16.5938 18.8906 16.4661 18.8906 16.3203C18.8906 16.1745 18.8268 16.056 18.6992 15.9648C18.6081 15.9284 18.5534 15.9284 18.5352 15.9648C18.5169 16.0013 18.4987 16.0378 18.4805 16.0742C18.4805 16.1107 18.4622 16.1471 18.4258 16.1836C18.4076 16.2201 18.362 16.2201 18.2891 16.1836C18.3073 15.9831 18.3529 15.819 18.4258 15.6914C18.4987 15.5638 18.5534 15.4089 18.5898 15.2266L20.8594 13.7227C21.0964 13.9049 21.388 14.0964 21.7344 14.2969C22.0807 14.4974 22.4453 14.6979 22.8281 14.8984C23.2109 15.099 23.6029 15.3086 24.0039 15.5273C24.4049 15.7279 24.7786 15.9284 25.125 16.1289C25.4531 16.2747 25.7357 16.457 25.9727 16.6758C26.2096 16.8763 26.4375 17.0951 26.6562 17.332C26.875 17.5508 27.0938 17.7695 27.3125 17.9883C27.5312 18.207 27.7956 18.3893 28.1055 18.5352C28.069 18.8268 28.0872 19.0638 28.1602 19.2461C28.2331 19.4284 28.2513 19.6471 28.2148 19.9023C27.8685 20.5221 27.4492 21.0508 26.957 21.4883C26.4648 21.9076 25.9089 22.2721 25.2891 22.582C24.6875 22.8919 24.0404 23.1562 23.3477 23.375C22.6549 23.5755 21.944 23.776 21.2148 23.9766C20.4857 24.1589 19.7474 24.3594 19 24.5781C18.2708 24.7786 17.5508 25.0156 16.8398 25.2891C16.5299 25.2891 16.2656 25.2982 16.0469 25.3164C15.8281 25.3346 15.6185 25.362 15.418 25.3984C15.2174 25.4349 15.0169 25.4714 14.8164 25.5078C14.6159 25.5443 14.3971 25.5716 14.1602 25.5898C14.069 25.5716 14.0052 25.5898 13.9688 25.6445C13.9505 25.6992 13.9141 25.7448 13.8594 25.7812C13.4948 25.8359 13.1667 25.8633 12.875 25.8633C12.5833 25.8633 12.3372 25.8633 12.1367 25.8633C11.8815 25.8633 11.6172 25.8997 11.3438 25.9727C11.0703 26.0456 10.8151 26.0729 10.5781 26.0547C8.9375 25.9818 7.65234 25.3984 6.72266 24.3047C5.79297 23.2109 5.28255 21.707 5.19141 19.793C5.20964 19.7018 5.19141 19.6471 5.13672 19.6289C5.08203 19.5924 5.03646 19.556 5 19.5195Z" fill="white"/>
</svg>
